<?xml version="1.0" encoding="UTF-8" standalone="no"?>
<!-- Created with Inkscape (http://www.inkscape.org/) -->

<svg
   xmlns:dc="http://purl.org/dc/elements/1.1/"
   xmlns:cc="http://creativecommons.org/ns#"
   xmlns:rdf="http://www.w3.org/1999/02/22-rdf-syntax-ns#"
   xmlns:svg="http://www.w3.org/2000/svg"
   xmlns="http://www.w3.org/2000/svg"
   xmlns:sodipodi="http://sodipodi.sourceforge.net/DTD/sodipodi-0.dtd"
   xmlns:inkscape="http://www.inkscape.org/namespaces/inkscape"
   width="256"
   height="256"
   viewBox="0 0 256 256"
   id="svg5267"
   version="1.1"
   inkscape:version="0.91 r13725"
   sodipodi:docname="steemwinner.svg">
  <defs
     id="defs5269">
    <filter
       inkscape:collect="always"
       style="color-interpolation-filters:sRGB"
       id="filter5209"
       x="-0.014320673"
       width="1.0286413"
       y="-0.024223639"
       height="1.0484473">
      <feGaussianBlur
         inkscape:collect="always"
         stdDeviation="2.3678709"
         id="feGaussianBlur5211" />
    </filter>
  </defs>
  <sodipodi:namedview
     id="base"
     pagecolor="#ffffff"
     bordercolor="#666666"
     borderopacity="1.0"
     inkscape:pageopacity="0.0"
     inkscape:pageshadow="2"
     inkscape:zoom="0.7"
     inkscape:cx="-32.695579"
     inkscape:cy="109.70475"
     inkscape:document-units="px"
     inkscape:current-layer="layer1"
     showgrid="false"
     units="px"
     inkscape:window-width="1920"
     inkscape:window-height="1136"
     inkscape:window-x="0"
     inkscape:window-y="27"
     inkscape:window-maximized="1" />
  <metadata
     id="metadata5272">
    <rdf:RDF>
      <cc:Work
         rdf:about="">
        <dc:format>image/svg+xml</dc:format>
        <dc:type
           rdf:resource="http://purl.org/dc/dcmitype/StillImage" />
        <dc:title></dc:title>
      </cc:Work>
    </rdf:RDF>
  </metadata>
  <g
     inkscape:label="Livello 1"
     inkscape:groupmode="layer"
     id="layer1"
     transform="translate(0,-796.36216)">

    <path
       style="color:#000000;clip-rule:nonzero;display:inline;overflow:visible;visibility:visible;opacity:0.98000004;isolation:auto;mix-blend-mode:normal;color-interpolation:sRGB;color-interpolation-filters:linearRGB;solid-color:#000000;solid-opacity:1;fill:#000080;fill-opacity:1;fill-rule:nonzero;stroke:none;stroke-width:0.30000001;stroke-linecap:butt;stroke-linejoin:miter;stroke-miterlimit:4;stroke-dasharray:none;stroke-dashoffset:0;stroke-opacity:1;color-rendering:auto;image-rendering:auto;shape-rendering:auto;text-rendering:auto;enable-background:accumulate"
       d="m 30.008905,901.22853 c 45.692868,-4.13069 91.778765,-4.97918 137.494525,-0.70345 8.28591,-1.8955 8.83894,12.80203 -0.31873,8.77856 -36.71393,1.88904 -73.48928,-0.008 -110.191463,-1.2685 -9.408928,-0.46386 -18.818686,-1.05389 -28.176366,-2.16394 0.01274,-1.61289 0.425913,-3.22318 1.192034,-4.64267 z"
       id="path4929"
       inkscape:connector-curvature="0" />
    <path
       style="color:#000000;clip-rule:nonzero;display:inline;overflow:visible;visibility:visible;opacity:0.98000004;isolation:auto;mix-blend-mode:normal;color-interpolation:sRGB;color-interpolation-filters:linearRGB;solid-color:#000000;solid-opacity:1;fill:#000080;fill-opacity:1;fill-rule:nonzero;stroke:none;stroke-width:0.30000001;stroke-linecap:butt;stroke-linejoin:miter;stroke-miterlimit:4;stroke-dasharray:none;stroke-dashoffset:0;stroke-opacity:1;color-rendering:auto;image-rendering:auto;shape-rendering:auto;text-rendering:auto;enable-background:accumulate"
       d="m 33.319688,907.17768 c 4.336582,34.06572 0.858289,68.47449 -2.18e-4,102.60032 -1.327066,7.3778 -8.211461,-0.4064 -0.964516,-1.7605 10.317384,-1.1278 20.802596,-0.5973 31.21872,-1.468 32.975936,-0.9869 66.029296,-2.4436 98.991776,-1.5428 5.46479,1.111 21.40773,-2.7881 18.52361,6.2312 -2.98194,-6.4681 1.01538,1.7694 -4.84478,1.7837 -11.49562,2.1286 -23.35365,1.46 -34.98752,2.7826 -36.0848,1.9528 -72.615476,2.6955 -108.38588,-2.6983 -4.992033,-2.9736 3.66599,-5.2127 -0.109496,0.1838 -10.312899,2.5427 -4.814665,-12.7989 -6.396521,-18.99407 0.01702,-21.32658 1.199705,-42.67646 1.313502,-63.97469 1.524933,-7.16173 -4.143997,-20.42535 4.859474,-23.29634 l 0.51212,0.10026 0.269729,0.0528 0,0 z"
       id="path4931"
       inkscape:connector-curvature="0" />
    <path
       style="color:#000000;clip-rule:nonzero;display:inline;overflow:visible;visibility:visible;opacity:0.98000004;isolation:auto;mix-blend-mode:normal;color-interpolation:sRGB;color-interpolation-filters:linearRGB;solid-color:#000000;solid-opacity:1;fill:#000080;fill-opacity:1;fill-rule:nonzero;stroke:none;stroke-width:0.30000001;stroke-linecap:butt;stroke-linejoin:miter;stroke-miterlimit:4;stroke-dasharray:none;stroke-dashoffset:0;stroke-opacity:1;color-rendering:auto;image-rendering:auto;shape-rendering:auto;text-rendering:auto;enable-background:accumulate"
       d="m 169.82364,908.67915 c 5.78942,13.87738 3.62339,29.31089 3.90308,43.94537 -0.7308,12.12649 -1.51642,24.31694 -1.16621,36.42981 -2.45629,5.804 1.95256,19.08417 -3.90748,20.02767 -5.52427,-7.1758 0.40945,-17.70887 -2.31382,-26.17974 -0.81873,-21.34006 2.95066,-42.72088 0.27129,-63.97149 0.27294,-2.96699 -1.56007,-10.37494 3.21314,-10.25162 z"
       id="path4933"
       inkscape:connector-curvature="0" />
    <path
       style="color:#000000;clip-rule:nonzero;display:inline;overflow:visible;visibility:visible;opacity:0.98000004;isolation:auto;mix-blend-mode:normal;color-interpolation:sRGB;color-interpolation-filters:linearRGB;solid-color:#000000;solid-opacity:1;fill:#000080;fill-opacity:1;fill-rule:nonzero;stroke:none;stroke-width:0.30000001;stroke-linecap:butt;stroke-linejoin:miter;stroke-miterlimit:4;stroke-dasharray:none;stroke-dashoffset:0;stroke-opacity:1;color-rendering:auto;image-rendering:auto;shape-rendering:auto;text-rendering:auto;enable-background:accumulate"
       d="m 29.664052,900.60941 c 11.160474,-11.76696 23.538777,-23.0811 38.749319,-29.17574 3.504567,-2.80965 13.976779,-14.09838 14.937259,-5.94946 -9.505095,12.51246 -26.199834,15.94019 -36.853796,27.17023 -4.733035,3.1158 -10.162634,13.83429 -16.453817,8.61224 l -0.260683,-0.45212 -0.118282,-0.20515 0,0 z"
       id="path4943"
       inkscape:connector-curvature="0" />
    <path
       style="color:#000000;clip-rule:nonzero;display:inline;overflow:visible;visibility:visible;opacity:0.98000004;isolation:auto;mix-blend-mode:normal;color-interpolation:sRGB;color-interpolation-filters:linearRGB;solid-color:#000000;solid-opacity:1;fill:#000080;fill-opacity:1;fill-rule:nonzero;stroke:none;stroke-width:0.30000001;stroke-linecap:butt;stroke-linejoin:miter;stroke-miterlimit:4;stroke-dasharray:none;stroke-dashoffset:0;stroke-opacity:1;color-rendering:auto;image-rendering:auto;shape-rendering:auto;text-rendering:auto;enable-background:accumulate"
       d="m 84.19878,861.77624 c 38.44268,-2.0757 77.05486,-3.29188 115.49742,-0.72634 6.95795,-2.0861 10.94905,8.74077 2.18557,6.54226 -2.31121,-7.535 13.90645,-6.18076 11.03049,0.70938 -3.03255,1.70145 -13.31612,-1.28902 -8.4815,-5.00558 -0.25335,10.1302 -15.93231,2.14492 -22.63868,4.87135 -32.9251,0.4828 -65.89034,0.34697 -98.75797,-1.85507 0.0124,-1.57583 0.4161,-3.14921 1.16467,-4.536 z"
       id="path4945"
       inkscape:connector-curvature="0" />
    <path
       style="color:#000000;clip-rule:nonzero;display:inline;overflow:visible;visibility:visible;opacity:0.98000004;isolation:auto;mix-blend-mode:normal;color-interpolation:sRGB;color-interpolation-filters:linearRGB;solid-color:#000000;solid-opacity:1;fill:#000080;fill-opacity:1;fill-rule:nonzero;stroke:none;stroke-width:0.30000001;stroke-linecap:butt;stroke-linejoin:miter;stroke-miterlimit:4;stroke-dasharray:none;stroke-dashoffset:0;stroke-opacity:1;color-rendering:auto;image-rendering:auto;shape-rendering:auto;text-rendering:auto;enable-background:accumulate"
       d="m 171.06351,900.9191 c 9.42118,-8.79315 20.72425,-15.18626 31.35541,-22.27111 2.95752,-4.26024 15.21373,-11.56993 15.60768,-4.81134 -6.94936,3.65548 -13.21228,8.14749 -18.82547,13.57023 -7.95223,5.99637 -16.22533,11.55712 -24.6665,16.83919 -1.40361,-0.80473 -2.60758,-1.95871 -3.47112,-3.32697 z"
       id="path4947"
       inkscape:connector-curvature="0" />
    <path
       style="color:#000000;clip-rule:nonzero;display:inline;overflow:visible;visibility:visible;opacity:0.98000004;isolation:auto;mix-blend-mode:normal;color-interpolation:sRGB;color-interpolation-filters:linearRGB;solid-color:#000000;solid-opacity:1;fill:#6c6cee;fill-opacity:1;fill-rule:nonzero;stroke:none;stroke-width:0.30000001;stroke-linecap:butt;stroke-linejoin:miter;stroke-miterlimit:4;stroke-dasharray:none;stroke-dashoffset:0;stroke-opacity:1;color-rendering:auto;image-rendering:auto;shape-rendering:auto;text-rendering:auto;enable-background:accumulate"
       d="m 171.42393,1005.8402 c 12.38064,-13.45417 28.643,-23.83849 46.80995,-27.11197 4.82444,-0.20557 16.92162,-8.85242 15.3457,0.41858 -9.25922,6.51403 -21.78491,5.34956 -31.34353,11.54592 -9.53551,5.0666 -17.84677,12.31707 -27.12385,17.63747 -1.55715,-0.2643 -2.53015,-1.5726 -3.68827,-2.49 z"
       id="path4949"
       inkscape:connector-curvature="0" />
    <path
       style="color:#000000;clip-rule:nonzero;display:inline;overflow:visible;visibility:visible;opacity:0.98000004;isolation:auto;mix-blend-mode:normal;color-interpolation:sRGB;color-interpolation-filters:linearRGB;solid-color:#000000;solid-opacity:1;fill:#000080;fill-opacity:1;fill-rule:nonzero;stroke:none;stroke-width:0.30000001;stroke-linecap:butt;stroke-linejoin:miter;stroke-miterlimit:4;stroke-dasharray:none;stroke-dashoffset:0;stroke-opacity:1;color-rendering:auto;image-rendering:auto;shape-rendering:auto;text-rendering:auto;enable-background:accumulate"
       d="m 222.43401,975.29755 c -1.19006,-26.74219 -0.99393,-53.57836 0.31843,-80.29473 3.15974,-7.36215 1.10525,-16.03805 0.65145,-22.26902 9.19693,1.03873 5.75214,14.92477 4.88115,21.47628 -0.42853,18.5887 1.51197,37.18679 0.35825,55.79042 -1.73551,7.86543 1.93938,21.21876 -3.84935,25.58335 l -1.20162,-0.0713 -1.15831,-0.2147 z"
       id="path4951"
       inkscape:connector-curvature="0" />
    <g
       id="g4848"
       transform="matrix(1.1095959,0.16083561,-0.16083561,1.1095959,46.853574,814.78995)">
      <g
         transform="translate(7.8178895,-13.038399)"
         id="g4955">
        <path
           style="fill:#165098"
           inkscape:connector-curvature="0"
           class="st1"
           d="m 43.7,8 c -3.1,2.6 -6.3,5.8 -7.6,9.7 -1.5,4.6 0.6,9.3 2.6,13.4 2,4.2 4.2,8.3 6.1,12.6 1.5,3.4 3.6,7.4 3.1,11.2 -0.4,2.7 -1.3,5.3 -1.8,8 -0.4,1.8 1.3,0 1.9,-0.5 3.5,-3 7.3,-6.4 8.7,-11 C 57.4,49.1 57,47 56.2,44.8 55.4,42.7 54.5,40.7 53.6,38.6 51.7,34.4 49.7,30.2 47.7,26 46.9,24.5 46.1,22.9 45.4,21.3 44.7,19.6 44.3,17.8 44.2,15.9 44.1,14.4 44.1,13 44.3,11.5 44.4,10.4 44.7,9.4 44.8,8.3 44.9,7.7 44.4,7.5 43.7,8 Z m 45.8,0 c -3.1,2.6 -6.3,5.8 -7.6,9.7 -1.5,4.6 0.6,9.3 2.6,13.4 2,4.2 4.2,8.3 6.1,12.6 1.5,3.4 3.6,7.4 3.1,11.2 -0.4,2.7 -1.3,5.3 -1.8,8 -0.4,1.8 1.3,0 1.9,-0.5 3.5,-3 7.3,-6.4 8.7,-11 0.7,-2.3 0.3,-4.4 -0.5,-6.6 -0.8,-2.1 -1.7,-4.1 -2.6,-6.2 C 97.5,34.4 95.5,30.2 93.5,26 92.7,24.5 91.9,22.9 91.2,21.3 90.5,19.6 90.1,17.8 90,15.9 89.9,14.4 89.9,13 90.1,11.5 90.2,10.4 90.5,9.4 90.6,8.3 90.7,7.7 90.2,7.5 89.5,8 Z"
           id="path4837" />
        <path
           style="fill:#5c9dd5"
           inkscape:connector-curvature="0"
           class="st2"
           d="m 65.9,0.4 c -3.5,2.9 -7.3,6.4 -9.4,10.5 -1.5,2.9 -1.7,5.9 -0.9,8.9 1,3.6 2.4,7.2 3.9,10.7 2.9,6.7 6.7,13 9.5,19.8 1,2.4 2.1,5.1 2.3,7.8 0.2,3.3 -0.9,6.8 -1.8,9.9 -0.2,0.9 -0.8,2.1 -0.7,3 0.1,0.7 0.5,0.4 0.9,0.1 1.7,-1.3 3.4,-2.8 4.9,-4.3 C 78.7,62.9 83.4,57.7 83,51.6 82.8,49.1 81.6,46.7 80.6,44.4 79.5,41.7 78.3,39.1 77.1,36.5 74.9,31.6 72.6,26.8 70.2,22 69.4,20.3 68.4,18.7 67.8,17 66.9,14.7 66.5,12.3 66.4,9.9 66.3,8.1 66.4,6.2 66.6,4.4 66.7,3.2 67.1,2.1 67.1,0.9 67.4,-0.2 66.8,-0.3 65.9,0.4 Z"
           id="path4839" />
      </g>
    </g>
    <path
       style="color:#000000;clip-rule:nonzero;display:inline;overflow:visible;visibility:visible;opacity:0.98000004;isolation:auto;mix-blend-mode:normal;color-interpolation:sRGB;color-interpolation-filters:linearRGB;solid-color:#000000;solid-opacity:1;fill:#000080;fill-opacity:1;fill-rule:nonzero;stroke:none;stroke-width:0.30000001;stroke-linecap:butt;stroke-linejoin:miter;stroke-miterlimit:4;stroke-dasharray:none;stroke-dashoffset:0;stroke-opacity:1;color-rendering:auto;image-rendering:auto;shape-rendering:auto;text-rendering:auto;enable-background:accumulate"
       d="m 95.85018,881.51127 c 8.87879,-0.48612 29.95684,-5.11104 30.79658,1.96083 -8.78944,2.93138 -25.44539,1.62784 -31.1617,0.91435 9.75321,-6.2298 28.01453,0.67622 41.01785,-2.42226 6.08142,-0.0601 3.50661,7.08701 7.52801,0.59762 10.46778,-2.22023 -0.61724,6.89561 -8.59038,4.51675 -11.03079,-2.10115 -33.90632,3.48338 -36.57176,-5.04985 13.678,0.89884 35.0062,-2.09783 46.84945,1.38962 -2.14958,9.16846 -14.70393,-5.25195 -1.82603,-1.02924 7.07842,8.06629 -19.82755,4.9109 -27.13263,6.07478 -10.85388,2.14694 -38.435169,-5.17216 -16.15876,-8.48586 6.93502,-0.49471 32.82285,-1.24669 20.9009,5.15995 -6.65607,-2.09549 -34.49357,5.58712 -25.65153,-3.62669 z"
       id="path4953"
       inkscape:connector-curvature="0" />

    <path
       style="color:#000000;clip-rule:nonzero;display:inline;overflow:visible;visibility:visible;opacity:0.98000004;isolation:auto;mix-blend-mode:normal;color-interpolation:sRGB;color-interpolation-filters:linearRGB;solid-color:#000000;solid-opacity:1;fill:#6c6cee;fill-opacity:1;fill-rule:nonzero;stroke:none;stroke-width:0.30000001;stroke-linecap:butt;stroke-linejoin:miter;stroke-miterlimit:4;stroke-dasharray:none;stroke-dashoffset:0;stroke-opacity:1;color-rendering:auto;image-rendering:auto;shape-rendering:auto;text-rendering:auto;enable-background:accumulate"
       id="path5006"
       d="m 34.934608,998.27403 c 0.145093,-2.6598 0.931561,-5.2346 1.88838,-7.7037 0.311437,-0.5734 0.672504,-1.6827 1.561828,-1.5814 1.10099,0.1253 2.084377,1.3612 2.819245,2.0398 2.097296,1.8114 4.259789,3.6788 6.80487,4.8332 1.112911,0.2959 1.369562,-0.4061 2.419438,-0.6446 0.726736,0 2.1413,-0.1596 2.337892,0.8307 0.05592,0.2818 -0.01517,0.5744 -0.02272,0.8615 -0.09804,0.3814 -0.167107,0.7714 -0.294142,1.1442 -0.357101,1.0476 -0.867318,1.99627 -1.331023,2.99837 -0.677349,1.4637 -1.340664,2.9356 -1.994766,4.4099 -0.501171,1.0711 -0.282145,0.5894 -0.663081,1.4425 -0.01107,0.031 -0.452915,-0.1251 -0.441858,-0.1564 l 0,0 c 0.357605,-0.8693 0.150693,-0.3823 0.630419,-1.4569 0.637779,-1.4865 1.295695,-2.9667 1.98204,-4.4315 0.457728,-0.97677 0.965874,-1.89947 1.335886,-2.91477 0.125743,-0.3449 0.200699,-0.7064 0.301066,-1.0597 0.02347,-0.2211 0.0814,-0.4412 0.07017,-0.6633 -0.03471,-0.6891 -1.263444,-0.5368 -1.725146,-0.5838 -1.126509,0.1786 -1.543744,1.1403 -2.878171,0.6182 -2.59503,-1.1626 -4.815855,-3.0284 -6.924452,-4.9036 -0.264783,-0.2498 -2.108294,-2.2422 -2.666766,-1.9308 -0.377607,0.2106 -0.697863,1.0118 -0.845421,1.2995 -0.921969,2.429 -1.691008,4.9507 -1.899169,7.5526 0,0.033 -0.464644,0.033 -0.464644,0 z"
       inkscape:connector-curvature="0" />
    <path
       style="color:#000000;clip-rule:nonzero;display:inline;overflow:visible;visibility:visible;opacity:0.98000004;isolation:auto;mix-blend-mode:normal;color-interpolation:sRGB;color-interpolation-filters:linearRGB;solid-color:#000000;solid-opacity:1;fill:#0000ff;fill-opacity:1;fill-rule:nonzero;stroke:none;stroke-width:0.30000001;stroke-linecap:butt;stroke-linejoin:miter;stroke-miterlimit:4;stroke-dasharray:none;stroke-dashoffset:0;stroke-opacity:1;color-rendering:auto;image-rendering:auto;shape-rendering:auto;text-rendering:auto;enable-background:accumulate"
       id="path5008"
       d="m 45.626196,991.19683 c 0.849419,-2.96311 2.489909,-5.61136 4.210486,-8.13838 0.265487,-0.38221 0.938049,-1.32358 1.209136,-1.79658 0.188938,-0.32972 0.273518,-0.65458 0.281441,-0.65407 0.587386,0.0369 0.656021,0.35009 0.940187,0.7675 1.785071,2.04414 4.279876,2.68731 6.874394,2.97973 1.149756,0.0461 2.308885,-0.008 3.27351,-0.67587 0.08182,0.18913 0.266954,0.3625 0.245517,0.56747 -0.03395,0.32427 -0.268413,0.5943 -0.398289,0.89334 -2.220499,5.11336 1.422923,-3.19258 -1.717986,3.95736 -1.810423,4.1214 -0.859287,1.8613 -2.626786,6.2452 -0.97611,2.3457 -1.697087,4.78047 -2.410979,7.21427 -0.0084,0.036 -0.518768,-0.083 -0.510334,-0.1192 l 0,0 c 0.658293,-2.46757 1.355511,-4.92717 2.341086,-7.28977 1.619833,-3.9683 0.981786,-2.5191 2.676005,-6.2468 0.360773,-0.79382 0.72879,-1.58421 1.090695,-2.37745 0.236514,-0.51835 0.464653,-1.04056 0.704545,-1.5574 0.133825,-0.2883 0.198185,-0.62683 0.416557,-0.85779 0.120042,-0.12701 0.339881,-0.0813 0.509814,-0.12215 -1.034467,0.89787 -2.4702,0.88454 -3.76732,0.84707 -2.761651,-0.33266 -5.262802,-1.01893 -7.116181,-3.23677 -0.153904,-0.24144 -0.679403,-0.66682 -0.08933,-0.87431 0.07746,-0.0268 -0.03789,0.16021 -0.0669,0.237 -0.06665,0.17639 -0.130639,0.35504 -0.219563,0.52137 -0.278657,0.52094 -0.887589,1.38486 -1.186274,1.82574 -1.68893,2.4976 -3.303515,5.10108 -4.210377,7.99839 -0.0075,0.032 -0.460646,-0.076 -0.453025,-0.1079 z"
       inkscape:connector-curvature="0" />
    <path
       style="color:#000000;clip-rule:nonzero;display:inline;overflow:visible;visibility:visible;opacity:0.98000004;isolation:auto;mix-blend-mode:normal;color-interpolation:sRGB;color-interpolation-filters:linearRGB;solid-color:#000000;solid-opacity:1;fill:#0000ff;fill-opacity:1;fill-rule:nonzero;stroke:none;stroke-width:0.30000001;stroke-linecap:butt;stroke-linejoin:miter;stroke-miterlimit:4;stroke-dasharray:none;stroke-dashoffset:0;stroke-opacity:1;color-rendering:auto;image-rendering:auto;shape-rendering:auto;text-rendering:auto;enable-background:accumulate"
       id="path5010"
       d="m 59.370565,996.68513 c 3.312116,-0.7493 6.718395,-0.9823 10.106037,-1.026 0.226756,0.067 2.392921,-0.065 2.619216,0.2862 0.213484,0.3316 0.05617,0.5514 -0.04477,0.8817 -0.664673,1.5722 -1.29261,3.1716 -1.781231,4.80847 -0.122046,0.6353 -0.09236,0.3363 -0.109907,0.8945 0,0.033 -0.459807,0.022 -0.459053,-0.011 l 0,0 c 0.01618,-0.6318 -0.01459,-0.2994 0.109689,-0.9953 0.471108,-1.64807 1.09207,-3.26137 1.797344,-4.82217 0.04678,-0.1209 0.06791,-0.2553 0.140474,-0.3628 0.02104,-0.031 0.135015,0.018 0.11196,-0.012 -0.208806,-0.2679 -1.987363,-0.098 -2.249664,-0.176 -3.359877,0.074 -6.730375,0.3055 -10.033001,0.9548 -0.02976,0.014 -0.236865,-0.4063 -0.207104,-0.421 z"
       inkscape:connector-curvature="0" />
    <path
       style="color:#000000;clip-rule:nonzero;display:inline;overflow:visible;visibility:visible;opacity:0.98000004;isolation:auto;mix-blend-mode:normal;color-interpolation:sRGB;color-interpolation-filters:linearRGB;solid-color:#000000;solid-opacity:1;fill:#0000ff;fill-opacity:1;fill-rule:nonzero;stroke:none;stroke-width:0.30000001;stroke-linecap:butt;stroke-linejoin:miter;stroke-miterlimit:4;stroke-dasharray:none;stroke-dashoffset:0;stroke-opacity:1;color-rendering:auto;image-rendering:auto;shape-rendering:auto;text-rendering:auto;enable-background:accumulate"
       id="path5012"
       d="m 48.621945,982.08161 c -2.321133,-1.21024 -4.70692,-2.26379 -7.139126,-3.22738 -1.581261,-0.67881 -3.202284,-1.22423 -4.933483,-1.21879 -0.604505,-0.0117 -1.207795,-0.0528 -1.810967,-0.0912 -0.03144,-0.0101 0.107115,-0.45404 0.138528,-0.44432 l 0,0 c 0.596608,0.0344 1.193325,0.0696 1.791014,0.0788 1.779018,0.0168 3.452992,0.56488 5.083992,1.25224 2.445208,0.95831 4.843914,2.01052 7.147157,3.27868 0.02624,0.0193 -0.250841,0.39117 -0.277115,0.37164 z"
       inkscape:connector-curvature="0" />
    <path
       style="color:#000000;clip-rule:nonzero;display:inline;overflow:visible;visibility:visible;opacity:0.98000004;isolation:auto;mix-blend-mode:normal;color-interpolation:sRGB;color-interpolation-filters:linearRGB;solid-color:#000000;solid-opacity:1;fill:#0000ff;fill-opacity:1;fill-rule:nonzero;stroke:none;stroke-width:0.30000001;stroke-linecap:butt;stroke-linejoin:miter;stroke-miterlimit:4;stroke-dasharray:none;stroke-dashoffset:0;stroke-opacity:1;color-rendering:auto;image-rendering:auto;shape-rendering:auto;text-rendering:auto;enable-background:accumulate"
       id="path5014"
       d="m 42.032614,973.59286 c 0.296707,-2.50405 0.765467,-4.98027 0.994361,-7.49346 0.121283,-0.69859 -0.01408,-2.82128 1.308337,-2.16435 0.208245,0.10345 0.361369,0.29275 0.542041,0.43912 1.335399,1.17813 2.915956,2.18464 4.675054,2.57967 0.40669,0.0913 0.824764,0.12131 1.237137,0.18201 2.084595,0.15392 4.133242,-0.27959 6.166395,-0.67127 0.70613,-0.20397 1.380402,-0.0687 2.079129,0.0495 0.115423,0.0796 0.26127,0.12826 0.346287,0.2401 1.020408,1.34169 0.127202,5.07576 -0.167803,6.53163 -0.533339,2.12688 -1.237121,4.20002 -2.29232,6.12478 -0.01325,0.0302 -0.442319,-0.15602 -0.429132,-0.18637 l 0,0 c 0.98052,-1.91402 1.67368,-3.94315 2.198249,-6.02845 0.261983,-1.25358 1.148138,-4.91748 0.374807,-6.11388 -0.04603,-0.0713 -0.137212,-0.0997 -0.205839,-0.14956 -0.587252,-0.10756 -1.117664,-0.21906 -1.71252,-0.036 -2.154462,0.44558 -4.326823,0.91664 -6.543516,0.70555 -0.431161,-0.0704 -0.868668,-0.10915 -1.293499,-0.21101 -1.805208,-0.43284 -3.416473,-1.46862 -4.779362,-2.69838 -0.15153,-0.12693 -0.319199,-0.23675 -0.454592,-0.38078 -0.04016,-0.0427 -0.0084,-0.13648 -0.05902,-0.1654 -0.400695,-0.22795 -0.444859,1.8721 -0.498706,1.98939 -0.204942,2.52207 -0.668529,5.00341 -1.019519,7.5067 -0.0034,0.0327 -0.469431,-0.0159 -0.466003,-0.0486 z"
       inkscape:connector-curvature="0" />
    <path
       style="color:#000000;clip-rule:nonzero;display:inline;overflow:visible;visibility:visible;opacity:0.98000004;isolation:auto;mix-blend-mode:normal;color-interpolation:sRGB;color-interpolation-filters:linearRGB;solid-color:#000000;solid-opacity:1;fill:#0000ff;fill-opacity:1;fill-rule:nonzero;stroke:none;stroke-width:0.30000001;stroke-linecap:butt;stroke-linejoin:miter;stroke-miterlimit:4;stroke-dasharray:none;stroke-dashoffset:0;stroke-opacity:1;color-rendering:auto;image-rendering:auto;shape-rendering:auto;text-rendering:auto;enable-background:accumulate"
       id="path5016"
       d="m 60.192361,969.10042 c 2.864683,-0.39058 5.757618,-0.50284 8.645758,-0.5227 1.363215,-0.0386 2.71788,0.12147 4.076527,0.18703 0.737299,0.0176 1.474707,-0.0159 2.211763,-0.0335 1.138975,-0.0243 2.278294,-0.0159 3.41737,-0.008 0.1381,0.031 0.299146,0.0117 0.414318,0.0937 1.025472,0.73313 -0.35939,4.05901 -0.658754,4.95386 -0.739244,2.31249 -2.066428,4.36669 -2.993344,6.59417 -0.311571,0.85519 0.183916,1.32911 0.466086,2.11087 0.271599,0.94825 0.303515,1.883 -0.367773,2.65218 -0.135535,0.0679 -0.257867,0.17455 -0.406589,0.20473 -0.924971,0.18745 -2.167524,-0.95639 -2.839977,-1.45537 -0.938653,-0.72902 -2.009747,-1.24301 -3.083357,-1.73487 -0.571583,-0.10488 -1.172433,0.0981 -1.743229,0.17999 -0.647587,0.0662 -0.320465,0.0394 -0.981408,0.0788 -0.03127,0.0101 -0.167049,-0.43301 -0.135745,-0.44256 l 0,0 c 0.641124,-0.0319 0.323735,-0.0101 0.952159,-0.0671 0.712325,-0.0939 1.462249,-0.34582 2.16801,-0.12248 1.104888,0.49638 2.206716,1.01288 3.164877,1.76857 0.352985,0.26383 1.755854,1.45293 2.243369,1.41445 0.102873,-0.008 0.196156,-0.0637 0.29425,-0.0961 0.629237,-0.59716 0.493517,-1.47759 0.294603,-2.24954 -0.295248,-0.82476 -0.831638,-1.48068 -0.476515,-2.39397 0.886449,-2.23411 2.211176,-4.28076 2.953824,-6.58042 0.393586,-1.15331 0.859186,-2.34519 1.059584,-3.55467 0.0135,-0.0822 0.121501,-0.69867 -0.09785,-0.84388 -0.09725,-0.0645 -0.229404,-0.0419 -0.34409,-0.0637 -1.059123,-0.008 -2.118296,-0.009 -3.177394,0 -0.82172,0.0159 -1.643809,0.0528 -2.465664,0.0277 -1.271283,-0.0604 -2.541241,-0.16508 -3.81555,-0.13666 -2.873947,0.0344 -5.748338,0.1556 -8.606909,0.46772 -0.0306,0.0117 -0.198973,-0.42144 -0.168348,-0.43343 z"
       inkscape:connector-curvature="0" />
    <path
       style="color:#000000;clip-rule:nonzero;display:inline;overflow:visible;visibility:visible;opacity:0.98000004;isolation:auto;mix-blend-mode:normal;color-interpolation:sRGB;color-interpolation-filters:linearRGB;solid-color:#000000;solid-opacity:1;fill:#6c6cee;fill-opacity:1;fill-rule:nonzero;stroke:none;stroke-width:0.30000001;stroke-linecap:butt;stroke-linejoin:miter;stroke-miterlimit:4;stroke-dasharray:none;stroke-dashoffset:0;stroke-opacity:1;color-rendering:auto;image-rendering:auto;shape-rendering:auto;text-rendering:auto;enable-background:accumulate"
       id="path5018"
       d="m 74.517234,998.24643 c 0.305359,-2.9374 0.370934,-5.889 0.666752,-8.8271 0.238811,-0.6284 0.01241,-2.10813 0.360908,-2.69891 0.10377,-0.17597 0.173395,-0.16893 0.340393,-0.22241 -0.08531,-0.45271 0.0089,-0.94406 0.209888,-1.38839 0.110636,-0.10362 0.202938,-0.23113 0.331901,-0.31069 0.828905,-0.51155 3.159201,-0.0662 4.078274,0.0109 2.96695,0.32788 5.93418,0.69717 8.91957,0.80179 0.15367,0.0243 0.32599,-0.008 0.46104,0.0721 0.65815,0.37634 -0.003,1.73856 -0.1204,2.21323 -0.0759,0.30591 -0.14129,0.61417 -0.21192,0.92128 -0.45872,2.305 -0.40353,4.6573 -0.28776,6.991 0.0478,1.0752 0.19662,2.1446 0.18222,3.2219 -0.0706,1.13247 0.004,2.27127 -0.15235,3.39597 -0.13134,0.2886 -0.19716,0.6683 -0.61502,0.6995 -0.86367,0.064 -2.84727,-1.468 -3.55335,-1.9197 -2.35746,-1.46087 -4.85543,-2.66267 -7.407912,-3.73707 -0.845395,-0.3006 -0.442914,-0.2035 -1.198598,-0.3259 -0.03043,-0.013 0.148772,-0.4429 0.179213,-0.4302 l 0,0 c 0.825467,0.1499 0.394231,0.042 1.287689,0.348 2.588168,1.0575 5.107778,2.2775 7.476178,3.77087 0.68344,0.4442 1.36089,0.8975 2.04827,1.3356 0.21672,0.1381 0.44,0.2657 0.65746,0.4026 0.0886,0.056 0.1605,0.1444 0.26048,0.1753 0.0725,0.023 0.17067,0.027 0.22622,-0.025 0.0951,-0.088 0.11656,-0.232 0.17485,-0.3479 0.15116,-1.1079 0.0765,-2.2327 0.16151,-3.34747 0.0152,-1.0698 -0.17377,-2.1277 -0.21923,-3.1955 -0.126,-2.372 -0.18098,-4.765 0.30384,-7.1053 0.027,-0.1135 0.70265,-2.59159 0.64769,-2.60961 -0.13685,-0.0453 -0.28684,-0.0268 -0.43026,-0.0402 -2.99813,-0.0545 -5.97634,-0.43133 -8.95006,-0.79081 -0.424589,-0.0411 -0.849344,-0.0797 -1.273773,-0.12215 -0.800712,-0.0796 -1.837291,-0.3905 -2.551134,0.11695 -0.32117,0.60394 0.0092,1.29281 -0.490809,1.63871 -0.166587,-0.21889 -0.134638,0.3418 -0.16113,0.65332 -0.03647,0.42873 -0.146282,1.53433 -0.18099,1.88903 -0.271548,2.9454 -0.325143,5.9069 -0.708057,8.8417 -0.0042,0.033 -0.465516,-0.023 -0.461593,-0.055 z"
       inkscape:connector-curvature="0" />
    <path
       style="color:#000000;clip-rule:nonzero;display:inline;overflow:visible;visibility:visible;opacity:0.98000004;isolation:auto;mix-blend-mode:normal;color-interpolation:sRGB;color-interpolation-filters:linearRGB;solid-color:#000000;solid-opacity:1;fill:#0000ff;fill-opacity:1;fill-rule:nonzero;stroke:none;stroke-width:0.30000001;stroke-linecap:butt;stroke-linejoin:miter;stroke-miterlimit:4;stroke-dasharray:none;stroke-dashoffset:0;stroke-opacity:1;color-rendering:auto;image-rendering:auto;shape-rendering:auto;text-rendering:auto;enable-background:accumulate"
       id="path5020"
       d="m 89.44158,1000.8801 c 0.8831,-3.35647 2.22688,-6.62037 3.9085,-9.65447 0.90092,-1.9436 2.9551,-3.1994 3.72127,-5.20003 0.27579,-0.74303 -0.11012,-1.44363 -0.14412,-2.18146 0.0492,-0.10756 0.0582,-0.2453 0.14761,-0.32276 0.76982,-0.66707 3.20921,1.47792 3.78911,1.89768 1.46455,0.92494 3.03743,1.68859 4.7439,2.04145 0.62861,0.13003 1.73963,0.23231 2.381,0.3003 2.43777,0.15685 4.87983,-0.0252 7.31441,-0.1561 0.31363,-0.0151 1.26905,-0.12802 1.59441,0.10177 0.83526,0.59011 -0.38932,3.67635 -0.60186,4.34865 -0.84993,1.8653 -0.92686,4.5138 -2.70628,5.8126 -0.45151,0.2583 -0.80482,-0.01 -1.21457,-0.1561 -0.0366,-0.013 0.0615,0.049 0.0915,0.073 -0.33331,0.7613 -0.44643,1.5906 -0.77733,2.35877 -0.76541,1.3027 -1.68568,1.5146 -3.11374,1.4876 -1.06348,-0.1134 -2.08399,-0.4494 -3.15036,-0.5368 -0.84091,0.01 -1.67782,0.1055 -2.51813,0.1447 -2.24716,0.3755 -4.34418,0.5119 -6.62342,0.3701 -1.68527,-0.1631 -3.27878,-0.6265 -4.78811,-1.3779 -0.0267,-0.019 0.24835,-0.39737 0.27509,-0.37787 l 0,0 c 1.47863,0.69137 3.03101,1.12437 4.66302,1.27547 0.81282,0.049 1.61599,0.1195 2.43112,0.089 1.31226,-0.05 2.60702,-0.2932 3.91056,-0.4291 0.93369,-0.03 1.86235,-0.1436 2.7965,-0.1288 1.05767,0.1 2.07649,0.4109 3.13331,0.5193 1.16506,0.065 1.90652,-0.1577 2.5483,-1.19247 0.3465,-0.782 0.44332,-1.6401 0.81571,-2.4072 0.57556,-0.647 0.63778,0.072 1.20336,-0.047 1.48566,-0.946 1.82078,-4.0924 2.52469,-5.611 0.1071,-0.3275 1.20628,-3.51523 0.90452,-3.7913 -0.22565,-0.2064 -1.19438,-0.0604 -1.25375,-0.057 -2.53726,0.15174 -5.08417,0.34456 -7.62498,0.15551 -0.75658,-0.0813 -1.70047,-0.16414 -2.44331,-0.32402 -1.75218,-0.37708 -3.37101,-1.16085 -4.86783,-2.13006 -0.16675,-0.12223 -1.67192,-1.22843 -1.90941,-1.39182 -0.0336,-0.0235 -1.06272,-0.6799 -1.11816,-0.67168 -0.0513,0.008 -0.0686,0.078 -0.10282,0.11686 0.0277,0.78704 0.45916,1.53937 0.13375,2.33622 -0.75977,2.0303 -2.71984,3.3491 -3.68325,5.2785 -1.65175,2.9985 -2.95868,6.21 -3.92861,9.49226 -0.004,0.033 -0.46551,-0.023 -0.46159,-0.055 z"
       inkscape:connector-curvature="0" />
    <path
       style="color:#000000;clip-rule:nonzero;display:inline;overflow:visible;visibility:visible;opacity:0.98000004;isolation:auto;mix-blend-mode:normal;color-interpolation:sRGB;color-interpolation-filters:linearRGB;solid-color:#000000;solid-opacity:1;fill:#0000ff;fill-opacity:1;fill-rule:nonzero;stroke:none;stroke-width:0.30000001;stroke-linecap:butt;stroke-linejoin:miter;stroke-miterlimit:4;stroke-dasharray:none;stroke-dashoffset:0;stroke-opacity:1;color-rendering:auto;image-rendering:auto;shape-rendering:auto;text-rendering:auto;enable-background:accumulate"
       id="path5022"
       d="m 118.04728,997.20203 c 0.66816,-3.0708 1.58562,-6.0836 2.67842,-9.02842 0.30593,-0.0973 0.11839,-0.83416 0.44346,-0.99797 0.68705,-0.34624 1.46265,0.39922 2.00737,0.67579 0.35658,0.181 0.72497,0.33777 1.08745,0.5067 3.89936,1.3152 8.10009,1.3455 12.17467,1.3371 1.88584,-0.03 3.77037,-0.1187 5.65143,-0.2544 0.62832,-0.045 1.30134,-0.1889 1.92936,-0.087 -0.0225,0.1889 -0.005,0.3871 -0.0672,0.5669 -0.0829,0.2385 -0.24699,0.4406 -0.36111,0.6659 -0.1806,0.3564 -0.35147,0.7177 -0.52285,1.0787 -0.68917,1.4515 -1.31794,2.9266 -1.94673,4.4049 -0.79548,1.654 -1.09109,3.4693 -1.59211,5.21637 -0.29448,1.1536 -0.49826,1.335 -1.74015,0.9273 -1.73914,-0.8173 -3.55024,-1.4112 -5.41684,-1.8512 -1.83653,-0.42857 -3.70634,-0.2706 -5.56324,-0.1231 -1.60402,0.2437 -3.18009,-0.086 -4.75346,-0.35197 -0.65284,-0.1 -1.31224,-0.1134 -1.97058,-0.088 -0.0314,0.01 -0.15877,-0.4352 -0.12737,-0.4442 l 0,0 c 0.76052,-0.023 1.52218,-0.028 2.27573,0.1 1.46354,0.2404 2.93447,0.5408 4.42356,0.3223 1.97744,-0.1577 3.97311,-0.3167 5.92682,0.1445 1.87497,0.44987 3.69361,1.05007 5.43547,1.88727 0.9725,0.3179 0.7445,0.4379 1.06026,-0.6286 0.49088,-1.76787 0.74909,-3.60997 1.55078,-5.28317 0.63255,-1.4865 1.26571,-2.9686 1.97674,-4.4199 0.002,0 0.80344,-1.6383 0.94509,-1.7718 0.068,-0.064 0.18355,0.034 0.27533,0.051 -2.29054,0.2566 -4.86169,0.4498 -7.25037,0.4746 -4.22273,0 -8.5858,-0.017 -12.60438,-1.4699 -1.85572,-0.90252 -0.39377,-0.1575 -1.89575,-0.99826 -0.15065,-0.0843 -0.32364,-0.13246 -0.45936,-0.23901 -0.041,-0.0327 0.007,-0.17765 -0.0381,-0.15174 -0.29397,0.16859 -0.0617,0.88361 -0.38118,0.94247 -1.03844,2.94564 -1.94465,5.93814 -2.68625,8.97284 -0.006,0.033 -0.47094,-0.054 -0.46484,-0.086 z"
       inkscape:connector-curvature="0" />
    <path
       style="color:#000000;clip-rule:nonzero;display:inline;overflow:visible;visibility:visible;opacity:0.98000004;isolation:auto;mix-blend-mode:normal;color-interpolation:sRGB;color-interpolation-filters:linearRGB;solid-color:#000000;solid-opacity:1;fill:#0000ff;fill-opacity:1;fill-rule:nonzero;stroke:none;stroke-width:0.30000001;stroke-linecap:butt;stroke-linejoin:miter;stroke-miterlimit:4;stroke-dasharray:none;stroke-dashoffset:0;stroke-opacity:1;color-rendering:auto;image-rendering:auto;shape-rendering:auto;text-rendering:auto;enable-background:accumulate"
       id="path5024"
       d="m 145.55036,1001.7856 c -0.13357,-2.69097 0.59496,-5.28027 1.51615,-7.77737 0.52279,-1.5698 1.3906,-3.0162 1.79602,-4.6256 0.3143,-1.247 0.69627,-1.23761 1.95402,-1.22504 2.91477,0.72584 5.75019,1.72284 8.69153,2.35744 0.50078,0.2185 2.11288,0.042 2.49634,0.5831 0.37871,0.5343 -0.37801,1.3717 -0.61937,1.7644 -1.19128,1.723 -2.07021,3.6166 -2.97899,5.4941 -0.27087,0.5092 -0.46156,1.0295 -0.55496,1.5949 -0.004,0.032 -0.45997,-0.029 -0.45565,-0.061 l 0,0 c 0.0939,-0.6043 0.27168,-1.1664 0.56079,-1.7117 0.90556,-1.8963 1.78159,-3.81 3.00296,-5.5327 0.14123,-0.221 0.28108,-0.4429 0.42368,-0.6631 0.16307,-0.2517 0.34694,-0.5092 0.33336,-0.5257 -0.42034,-0.5126 -1.92734,-0.1525 -2.42236,-0.4744 -2.9177,-0.6257 -5.72604,-1.6149 -8.60641,-2.3709 -1.00213,-0.0612 -1.11604,-0.1391 -1.37565,0.8623 -0.38666,1.6292 -1.2184,3.1049 -1.75681,4.6834 -0.90454,2.4516 -1.62171,4.9871 -1.54,7.62797 0,0.033 -0.46465,0.033 -0.46465,0 z"
       inkscape:connector-curvature="0" />
    <path
       style="color:#000000;clip-rule:nonzero;display:inline;overflow:visible;visibility:visible;opacity:0.98000004;isolation:auto;mix-blend-mode:normal;color-interpolation:sRGB;color-interpolation-filters:linearRGB;solid-color:#000000;solid-opacity:1;fill:#0000ff;fill-opacity:1;fill-rule:nonzero;stroke:none;stroke-width:0.30000001;stroke-linecap:butt;stroke-linejoin:miter;stroke-miterlimit:4;stroke-dasharray:none;stroke-dashoffset:0;stroke-opacity:1;color-rendering:auto;image-rendering:auto;shape-rendering:auto;text-rendering:auto;enable-background:accumulate"
       id="path5026"
       d="m 173.36108,985.92944 c 0.79921,-2.70559 1.92095,-5.30043 2.98803,-7.90752 0.0171,-0.008 0.97762,-2.22295 1.00513,-2.22388 0.49055,-0.0168 0.62588,0.17815 0.93807,0.44366 1.21413,0.92637 2.73938,0.68375 4.17036,0.6202 3.87736,-0.22367 7.76023,-0.27137 11.63507,-0.53679 1.90504,-0.15082 0.78261,-0.0595 2.34807,-0.19131 0.19139,-0.0159 0.38268,-0.0335 0.5742,-0.0478 0.0909,-0.008 0.28175,-0.10706 0.27296,-0.0159 -0.08,0.8261 -0.66779,0.90407 -1.29268,1.24511 -3.86887,2.18313 -8.16121,3.34415 -12.42887,4.45362 -3.50695,0.88529 -1.00765,0.26894 -4.0325,0.98405 -0.3231,0.0763 -1.51477,0.33089 -1.94838,0.53151 -0.30795,0.14252 -0.17644,0.17035 -0.0481,0.25209 0.79973,0.74504 1.48132,1.05195 1.174,2.24811 -0.27213,0.59019 -0.13017,0.29652 -0.42613,0.88084 -0.0126,0.0302 -0.43949,-0.1483 -0.42687,-0.1784 l 0,0 c 0.28486,-0.55523 0.14933,-0.28495 0.40746,-0.81042 0.0604,-0.1774 0.17199,-0.38673 0.10021,-0.58676 -0.21897,-0.6104 -0.96767,-0.87951 -1.26648,-1.43801 -0.0166,-0.15468 -0.0962,-0.31556 -0.0497,-0.46403 0.16232,-0.51835 1.96233,-0.83491 2.25528,-0.90918 5.90279,-1.49812 -3.26196,0.86274 4.00728,-1.0165 4.2407,-1.09865 8.5084,-2.2206 12.38089,-4.33449 0.97312,-0.50393 0.75069,-0.60176 1.73736,-0.42865 0.0866,0.0151 -0.1748,0.0185 -0.26212,0.0285 -0.97034,0.11066 -1.94081,0.22107 -2.91475,0.29677 -3.88023,0.3008 -7.76967,0.34037 -11.65647,0.52263 -1.60842,0.0444 -3.31506,0.26952 -4.65558,-0.80096 -0.4298,-0.37734 -0.37704,-0.14285 -0.18947,-0.55171 0.0207,-0.0453 -0.0577,0.0822 -0.0763,0.1281 -0.0563,0.14008 -0.0918,0.28788 -0.14748,0.42822 -0.21843,0.55096 -0.48946,1.08029 -0.7057,1.63218 -1.04054,2.60389 -2.15801,5.18197 -3.01377,7.85529 -0.008,0.0318 -0.46064,-0.0763 -0.45301,-0.1079 z"
       inkscape:connector-curvature="0" />
    <path
       style="color:#000000;clip-rule:nonzero;display:inline;overflow:visible;visibility:visible;opacity:0.98000004;isolation:auto;mix-blend-mode:normal;color-interpolation:sRGB;color-interpolation-filters:linearRGB;solid-color:#000000;solid-opacity:1;fill:#0000ff;fill-opacity:1;fill-rule:nonzero;stroke:none;stroke-width:0.30000001;stroke-linecap:butt;stroke-linejoin:miter;stroke-miterlimit:4;stroke-dasharray:none;stroke-dashoffset:0;stroke-opacity:1;color-rendering:auto;image-rendering:auto;shape-rendering:auto;text-rendering:auto;enable-background:accumulate"
       id="path5028"
       d="m 174.75535,996.81193 c 0.95518,-2.1961 1.7309,-4.4705 2.80296,-6.6156 0.78157,-1.5639 0.92134,-1.69292 1.83322,-3.07518 0.54771,-0.54459 1.32934,-2.15782 2.37662,-1.68239 0.12823,0.0578 0.43099,0.46167 0.51737,0.56982 0.16932,0.11318 0.25905,0.21361 0.48038,0.2012 0.12721,-0.008 1.04812,-0.93232 1.13241,-1.00869 0.80266,-0.87389 1.67854,-1.6554 2.75905,-2.15815 1.22707,-0.4066 2.18035,-1.25677 3.147,-2.08245 0.75554,-0.57888 1.82366,-1.72196 2.90676,-1.27898 0.13588,0.0553 0.2305,0.18192 0.34575,0.2728 0.0988,0.1628 0.21763,0.31488 0.29638,0.48825 0.13122,0.28881 0.30823,1.00182 0.39852,1.29348 0.20161,0.65123 0.43154,1.28963 0.61935,1.94538 0.0377,0.18217 0.0755,0.36443 0.11317,0.5466 0.006,0.0327 -0.45261,0.11326 -0.45831,0.0805 l 0,0 c -0.0371,-0.17245 -0.0741,-0.34489 -0.11115,-0.51734 -0.19187,-0.655 -0.42389,-1.29508 -0.62314,-1.94756 -0.0714,-0.23381 -0.25047,-0.948 -0.35639,-1.20143 -0.0554,-0.13254 -0.14085,-0.2505 -0.21128,-0.37583 -0.005,0 -0.30154,-0.26509 -0.37359,-0.26458 -0.862,0.008 -1.55672,0.81621 -2.18688,1.27755 -0.99396,0.84597 -1.98412,1.72255 -3.24191,2.14256 -1.05613,0.46377 -1.88761,1.24528 -2.6666,2.08337 -0.7318,0.6451 -1.36175,1.62228 -2.35419,0.74797 -0.11753,-0.14646 -0.26353,-0.27062 -0.36755,-0.42689 -0.0211,-0.0319 0.012,-0.11611 -0.0257,-0.11116 -0.73694,0.0966 -1.18081,1.27806 -1.65867,1.64785 -0.87949,1.35272 -1.02403,1.49812 -1.78601,3.02372 -1.06753,2.1375 -1.84252,4.4038 -2.85839,6.5645 -0.01,0.032 -0.45899,-0.1078 -0.44912,-0.1396 z"
       inkscape:connector-curvature="0" />
    <path
       style="color:#000000;clip-rule:nonzero;display:inline;overflow:visible;visibility:visible;opacity:0.98000004;isolation:auto;mix-blend-mode:normal;color-interpolation:sRGB;color-interpolation-filters:linearRGB;solid-color:#000000;solid-opacity:1;fill:#0000ff;fill-opacity:1;fill-rule:nonzero;stroke:none;stroke-width:0.30000001;stroke-linecap:butt;stroke-linejoin:miter;stroke-miterlimit:4;stroke-dasharray:none;stroke-dashoffset:0;stroke-opacity:1;color-rendering:auto;image-rendering:auto;shape-rendering:auto;text-rendering:auto;enable-background:accumulate"
       id="path5030"
       d="m 199.1006,981.51841 c -0.0374,-3.09224 -0.0305,-6.18481 -0.0217,-9.27721 -0.0672,-1.6274 0.006,-3.22243 0.53731,-4.76775 0.5051,-0.99118 0.49105,-2.08128 0.62656,-3.14966 0.13878,-0.27976 0.15044,-0.45447 0.50867,-0.53646 0.5605,-0.12827 2.75536,0.40123 3.27906,0.49689 3.62197,0.60285 7.30275,0.76582 10.96931,0.71133 -0.12815,-0.0268 1.26341,-0.14369 1.29408,0.29795 0.0488,0.70195 -1.27231,1.4054 -1.70159,1.77469 -0.24996,0.21504 -0.47661,0.45581 -0.71491,0.68367 -1.28974,1.41018 -1.11623,2.38115 -0.85903,4.12432 0.10238,0.5938 0.17173,1.19163 0.23039,1.79096 0.003,0.0327 -0.46089,0.0721 -0.46367,0.0394 l 0,0 c -0.0614,-0.59271 -0.13388,-1.18383 -0.23426,-1.7715 -0.28201,-1.86264 -0.41438,-2.97973 0.94632,-4.48909 0.64749,-0.62113 1.3488,-1.30857 2.13434,-1.76153 0.0979,-0.0562 0.24902,0 0.32854,-0.0838 0.1954,-0.19727 -2.0583,-0.39377 -0.82511,-0.11427 -3.77995,0.0951 -7.57742,-0.0562 -11.30382,-0.74219 -0.71067,-0.14025 -1.42234,-0.27539 -2.13276,-0.41682 -0.15413,-0.031 -0.75784,-0.23264 -0.87637,-0.15157 -0.0633,0.0436 -0.0814,0.13002 -0.12215,0.19499 -0.13025,1.09748 -0.11844,2.21458 -0.63542,3.23233 -0.53066,1.50122 -0.54307,3.05794 -0.47378,4.63797 0.009,3.0924 0.0157,6.18497 -0.0217,9.27721 0,0.0335 -0.46832,0.0335 -0.46832,0 z"
       inkscape:connector-curvature="0" />
    <path
       style="color:#000000;clip-rule:nonzero;display:inline;overflow:visible;visibility:visible;opacity:0.98000004;isolation:auto;mix-blend-mode:normal;color-interpolation:sRGB;color-interpolation-filters:linearRGB;solid-color:#000000;solid-opacity:1;fill:#0000ff;fill-opacity:1;fill-rule:nonzero;stroke:none;stroke-width:0.30000001;stroke-linecap:butt;stroke-linejoin:miter;stroke-miterlimit:4;stroke-dasharray:none;stroke-dashoffset:0;stroke-opacity:1;color-rendering:auto;image-rendering:auto;shape-rendering:auto;text-rendering:auto;enable-background:accumulate"
       id="path5032"
       d="m 141.75657,985.49048 c 0.79112,-2.62552 1.80563,-5.17896 2.87547,-7.70179 0.61181,-1.21316 0.85759,-1.40448 2.15964,-1.08951 1.12955,0.27322 0.28487,0.0957 1.52784,0.33349 1.55905,0.24405 3.14239,0.26601 4.71159,0.12576 0.89053,-0.1499 1.78976,-0.14537 2.6895,-0.13556 0.84761,0.12089 2.02148,-0.23474 2.7476,0.36853 0.12523,0.10404 0.19849,0.25813 0.29773,0.38715 0.22042,1.42929 0.21737,2.88743 0.34743,4.33299 0.12951,1.14853 0.17038,2.301 0.12165,3.45498 -0.0438,0.6488 -0.0692,1.29809 -0.077,1.94831 -2.7e-4,0.0327 -0.45883,0.0277 -0.45848,-0.008 l 0,0 c 0.009,-0.65357 0.035,-1.30639 0.0755,-1.95879 0.0423,-1.1373 -0.004,-2.2725 -0.13986,-3.40326 -0.12574,-1.37908 -0.16025,-2.75715 -0.26296,-4.1343 -0.58965,-0.8303 -1.89673,-0.43183 -2.77352,-0.53981 -0.80816,-0.0168 -1.61762,-0.0335 -2.41518,0.12307 -1.68275,0.18485 -3.38636,0.15568 -5.05808,-0.12483 -0.11034,-0.0226 -2.24099,-0.57427 -2.2764,-0.56119 -0.35353,0.13095 -0.62996,0.82762 -0.74675,1.04056 -1.04061,2.51872 -2.04108,5.05748 -2.89284,7.64696 -0.008,0.0319 -0.46064,-0.0763 -0.45301,-0.1079 z"
       inkscape:connector-curvature="0" />
    <path
       style="color:#000000;clip-rule:nonzero;display:inline;overflow:visible;visibility:visible;opacity:0.98000004;isolation:auto;mix-blend-mode:normal;color-interpolation:sRGB;color-interpolation-filters:linearRGB;solid-color:#000000;solid-opacity:1;fill:#0000ff;fill-opacity:1;fill-rule:nonzero;stroke:none;stroke-width:0.30000001;stroke-linecap:butt;stroke-linejoin:miter;stroke-miterlimit:4;stroke-dasharray:none;stroke-dashoffset:0;stroke-opacity:1;color-rendering:auto;image-rendering:auto;shape-rendering:auto;text-rendering:auto;enable-background:accumulate"
       id="path5034"
       d="m 81.50331,972.76005 c 3.34855,0.36502 6.71773,0.432 10.08278,0.4579 1.59011,-0.0528 3.19451,0.0453 4.78139,-0.1063 0.10315,0.14562 0.23855,0.27305 0.3095,0.43678 0.14642,0.33777 0.18918,2.66007 0.206,3.07002 0.0494,1.48538 0.0346,2.97185 -0.0243,4.45656 -0.0363,0.642 -0.0256,1.28501 -0.0179,1.92752 2.5e-4,0.0327 -0.45759,0.036 -0.45783,0 l 0,0 c -0.004,-0.64796 -0.008,-1.29608 0.0165,-1.9437 0.0371,-1.47608 0.0377,-2.95274 0.003,-4.42881 -0.0257,-0.753 -0.0559,-1.50357 -0.11404,-2.25473 -0.009,-0.11083 -0.074,-0.82485 -0.0598,-0.84338 0.0662,-0.0862 0.21673,-0.0142 0.3251,-0.0209 -0.29566,0.0874 -0.64446,0.0947 -0.94317,0.113 -1.38413,0.0847 -2.77167,0.0983 -4.15794,0.10429 -3.37557,-0.0193 -6.75932,-0.0942 -10.11098,-0.53243 -0.031,-0.0117 0.13216,-0.45078 0.16321,-0.43921 z"
       inkscape:connector-curvature="0" />
    <path
       style="color:#000000;clip-rule:nonzero;display:inline;overflow:visible;visibility:visible;opacity:0.98000004;isolation:auto;mix-blend-mode:normal;color-interpolation:sRGB;color-interpolation-filters:linearRGB;solid-color:#000000;solid-opacity:1;fill:#0000ff;fill-opacity:1;fill-rule:nonzero;stroke:none;stroke-width:0.30000001;stroke-linecap:butt;stroke-linejoin:miter;stroke-miterlimit:4;stroke-dasharray:none;stroke-dashoffset:0;stroke-opacity:1;color-rendering:auto;image-rendering:auto;shape-rendering:auto;text-rendering:auto;enable-background:accumulate"
       id="path5036"
       d="m 97.08292,972.41323 c 2.54205,-1.5247 5.18582,-2.79597 7.98068,-3.77834 2.35113,-0.83172 4.83107,-1.12925 7.25484,-1.66495 0.14661,-0.0319 0.90766,-0.23935 1.11982,-0.14219 0.59243,0.27129 0.25841,2.35399 0.23014,2.84325 -0.27679,1.93071 0.21902,3.77859 0.74249,5.61591 0.35056,0.88671 0.69886,1.74275 0.64073,2.70709 -0.13142,0.84112 0.13504,1.68424 0.24278,2.51772 0.14426,0.89326 0,1.80378 0.11669,2.69494 0.003,0.0327 -0.45294,0.083 -0.45654,0.0511 l 0,0 c -0.11883,-0.89308 0.005,-1.80101 -0.12288,-2.69704 -0.10428,-0.85829 -0.3745,-1.72506 -0.23511,-2.59098 0.0634,-0.91849 -0.32987,-1.72498 -0.6464,-2.57079 -0.55666,-1.87772 -1.05066,-3.77548 -0.76922,-5.75331 0.007,-0.10336 0.15924,-2.36488 0.14348,-2.37645 -0.21797,-0.16063 -0.73423,0.4724 -0.80061,0.13715 -2.39925,0.56706 -4.86418,0.84648 -7.20026,1.66738 -2.7803,0.97651 -5.4036,2.25054 -7.95857,3.71806 -0.0267,0.0201 -0.3088,-0.35822 -0.28206,-0.37817 z"
       inkscape:connector-curvature="0" />
    <path
       style="color:#000000;clip-rule:nonzero;display:inline;overflow:visible;visibility:visible;opacity:0.98000004;isolation:auto;mix-blend-mode:normal;color-interpolation:sRGB;color-interpolation-filters:linearRGB;solid-color:#000000;solid-opacity:1;fill:#0000ff;fill-opacity:1;fill-rule:nonzero;stroke:none;stroke-width:0.30000001;stroke-linecap:butt;stroke-linejoin:miter;stroke-miterlimit:4;stroke-dasharray:none;stroke-dashoffset:0;stroke-opacity:1;color-rendering:auto;image-rendering:auto;shape-rendering:auto;text-rendering:auto;enable-background:accumulate"
       id="path5040"
       d="m 113.06611,967.03298 c -0.0321,-2.71104 -0.0243,-5.42241 -0.0148,-8.13354 0.003,-1.22088 0.0152,-2.44167 0.0221,-3.66256 0.28189,-0.97449 1.78285,-0.34757 2.43093,-0.12315 1.37367,0.55532 2.85208,0.64335 4.30192,0.85411 0.50463,0.0963 1.01563,0.0646 1.50318,0.2406 0.24341,0.0878 0.45873,0.22392 0.70481,0.30709 1.11467,0.11686 0.90213,0.93676 0.67734,1.75231 -0.4085,1.07978 -0.46894,2.23301 -0.74297,3.34499 -0.25517,0.89166 -0.55872,1.75223 -0.66088,2.67885 0.0795,0.78637 -0.0909,1.5107 -0.2778,2.26395 -0.16572,0.81847 -0.0997,1.65883 -0.0578,2.48619 0.0124,0.89904 0.16959,1.81913 -0.0189,2.70534 -0.34444,1.12682 -1.5168,0.87339 -2.43766,0.74135 -1.26365,-0.29585 -2.46785,-0.31933 -3.72759,-0.0369 -0.67651,0.209 -1.35602,0.35387 -2.0637,0.37265 -0.0312,0.008 -0.14969,-0.4325 -0.11852,-0.44089 l 0,0 c 0.68267,0 1.33318,-0.14059 1.98209,-0.35361 1.3767,-0.33031 2.71564,-0.29334 4.09796,0.0226 0.63351,0.0925 1.55777,0.41364 1.81835,-0.38823 0.19753,-0.84531 -0.003,-1.74317 0.006,-2.60248 -0.0429,-0.86517 -0.1052,-1.74334 0.0742,-2.59811 0.18383,-0.739 0.34285,-1.44154 0.26281,-2.21424 0.10448,-0.94414 0.40432,-1.82113 0.66851,-2.72797 0.26747,-1.11819 0.32588,-2.2782 0.74495,-3.36009 0.22165,-0.75216 0.46849,-1.10829 -0.45951,-1.2597 -0.70421,-0.26977 -1.36737,-0.50149 -2.14668,-0.49168 -1.47452,-0.20674 -2.97399,-0.31799 -4.36626,-0.89209 -0.12415,-0.0419 -1.60259,-0.46662 -1.67782,-0.41724 -0.042,0.0277 -0.0422,0.0911 -0.0633,0.13665 0.007,1.22088 0.0186,2.44176 0.0221,3.66256 0.009,2.71121 0.0173,5.4225 -0.0148,8.13354 0,0.0335 -0.46832,0.0335 -0.46832,0 z"
       inkscape:connector-curvature="0" />
    <path
       style="color:#000000;clip-rule:nonzero;display:inline;overflow:visible;visibility:visible;opacity:0.98000004;isolation:auto;mix-blend-mode:normal;color-interpolation:sRGB;color-interpolation-filters:linearRGB;solid-color:#000000;solid-opacity:1;fill:#0000ff;fill-opacity:1;fill-rule:nonzero;stroke:none;stroke-width:0.30000001;stroke-linecap:butt;stroke-linejoin:miter;stroke-miterlimit:4;stroke-dasharray:none;stroke-dashoffset:0;stroke-opacity:1;color-rendering:auto;image-rendering:auto;shape-rendering:auto;text-rendering:auto;enable-background:accumulate"
       id="path5042"
       d="m 121.78753,964.33913 c 2.37248,-0.0335 4.74122,0.0604 7.10311,-0.19659 0.64902,-0.11561 1.31229,-0.17471 1.9588,-0.30583 0.52617,-0.10656 0.69208,-0.23834 1.25144,-0.20816 0.0915,0.14361 0.22595,0.2676 0.27454,0.43074 0.30463,1.02236 -0.33196,3.86862 -0.54476,4.93131 -0.23822,1.36508 -0.69362,2.76931 -0.4899,4.16817 0.20697,0.61844 0.25166,1.25341 0.25747,1.90061 -0.003,0.15383 -0.007,0.30776 -0.01,0.46168 0,0.0327 -0.46167,0.0235 -0.46104,-0.009 l 0,0 c 0.004,-0.15014 0.008,-0.30029 0.0116,-0.45052 0,-0.63069 -0.0448,-1.24419 -0.25016,-1.84612 -0.22046,-1.44564 0.1881,-2.89447 0.45121,-4.30733 0.3223,-1.59462 0.69551,-3.22025 0.59734,-4.85788 -0.18483,-0.13287 -0.03,-0.0511 -0.45749,0.0852 -0.78449,0.24999 -1.61819,0.3034 -2.4226,0.46595 -2.45247,0.30399 -4.91908,0.2064 -7.38542,0.18787 -0.0319,-0.008 0.0838,-0.45823 0.11555,-0.45002 z"
       inkscape:connector-curvature="0" />
    <path
       style="color:#000000;clip-rule:nonzero;display:inline;overflow:visible;visibility:visible;opacity:0.98000004;isolation:auto;mix-blend-mode:normal;color-interpolation:sRGB;color-interpolation-filters:linearRGB;solid-color:#000000;solid-opacity:1;fill:#0000ff;fill-opacity:1;fill-rule:nonzero;stroke:none;stroke-width:0.30000001;stroke-linecap:butt;stroke-linejoin:miter;stroke-miterlimit:4;stroke-dasharray:none;stroke-dashoffset:0;stroke-opacity:1;color-rendering:auto;image-rendering:auto;shape-rendering:auto;text-rendering:auto;enable-background:accumulate"
       id="path5044"
       d="m 133.05831,968.66147 c 3.11334,-0.64687 6.24508,-1.15818 9.39477,-1.58816 2.11417,-0.25327 4.18279,-0.71947 6.25018,-1.20906 0.13825,0.10806 0.35496,0.15911 0.41475,0.32402 0.0743,0.20489 -0.25139,1.52738 -0.26054,1.56963 -0.25406,1.1715 -0.49382,2.31584 -0.63061,3.5073 -0.13821,1.04525 0.0696,1.9826 0.46357,2.9275 0.10128,0.28789 0.0843,0.58634 0.0775,0.88554 -8.1e-4,0.0319 -0.4554,0.021 -0.45459,-0.0117 l 0,0 c 0.009,-0.24446 0.0322,-0.48883 -0.0475,-0.72525 -0.43445,-1.00324 -0.66312,-2.00876 -0.5313,-3.12308 0.13411,-1.21041 0.37089,-2.36581 0.6476,-3.55157 0.0692,-0.2966 0.14083,-0.59262 0.21359,-0.88831 0.0342,-0.13908 0.0324,-0.29392 0.10729,-0.41598 0.0386,-0.0629 0.13514,-0.0595 0.20269,-0.0895 -2.06274,0.55658 -4.13872,1.03075 -6.26411,1.29248 -3.15267,0.432 -6.28706,0.9423 -9.41485,1.52914 -0.0307,0.0117 -0.199,-0.42144 -0.16835,-0.43334 z"
       inkscape:connector-curvature="0" />
    <path
       style="color:#000000;clip-rule:nonzero;display:inline;overflow:visible;visibility:visible;opacity:0.98000004;isolation:auto;mix-blend-mode:normal;color-interpolation:sRGB;color-interpolation-filters:linearRGB;solid-color:#000000;solid-opacity:1;fill:#0000ff;fill-opacity:1;fill-rule:nonzero;stroke:none;stroke-width:0.30000001;stroke-linecap:butt;stroke-linejoin:miter;stroke-miterlimit:4;stroke-dasharray:none;stroke-dashoffset:0;stroke-opacity:1;color-rendering:auto;image-rendering:auto;shape-rendering:auto;text-rendering:auto;enable-background:accumulate"
       id="path5046"
       d="m 154.48025,970.86489 c 0.67457,-3.13541 1.44005,-6.25439 1.96473,-9.4199 0.54094,0.26241 -0.0843,-0.95764 0.25818,-1.00416 0.61707,-0.084 1.10843,0.71242 1.55331,0.99025 0.2072,0.12935 0.43574,0.22099 0.65361,0.33148 2.29828,0.75594 4.72275,0.16515 7.03269,-0.23407 1.06759,-0.23012 2.15697,-0.32502 3.23454,-0.48674 0.15272,-0.0226 0.3042,-0.0553 0.45368,-0.0939 0.0665,-0.0176 0.1444,-0.12307 0.19229,-0.0738 0.1398,0.14361 0.17493,0.36066 0.26239,0.54107 -0.13822,0.83181 0.35409,1.58053 0.73381,2.28323 0.39108,0.3516 0.55278,0.91438 0.92752,1.27286 0.12561,0.12014 0.29133,0.1898 0.43516,0.28747 0.82231,0.26215 0.90825,1.08348 1.04455,1.82709 0.19384,1.46215 0.12124,2.94225 0.0489,4.41045 0.0445,1.2887 -0.52108,2.44042 -0.90616,3.63548 -0.19044,0.77044 -0.11553,0.39117 -0.22992,1.13688 -0.004,0.0327 -0.46707,-0.026 -0.46291,-0.0587 l 0,0 c 0.11819,-0.79064 0.0404,-0.39033 0.23792,-1.2 0.37441,-1.16321 0.939,-2.27628 0.88911,-3.53212 0.0629,-1.43944 0.13844,-2.88944 -0.0374,-4.32393 -0.1199,-0.7079 -0.1503,-1.30287 -0.89377,-1.56519 -0.64615,-0.44139 -1.01456,-1.08071 -1.47662,-1.7036 -0.42774,-0.79567 -0.93473,-1.6367 -0.75235,-2.57422 0.14455,-0.0218 0.29348,-0.1058 0.43367,-0.0645 0.24711,0.0729 -0.47965,0.19877 -0.73322,0.24412 -1.06301,0.19022 -2.14959,0.26576 -3.20464,0.50838 -2.47251,0.43233 -5.08136,1.03443 -7.52078,0.14042 -0.25438,-0.13866 -2.20418,-1.09128 -1.47507,-1.58791 0.2701,-0.18393 -1.01764,1.8073 -0.20641,0.95848 -0.47279,3.18328 -1.2372,6.31559 -1.99201,9.44144 -0.006,0.0327 -0.47095,-0.0537 -0.46484,-0.0864 z"
       inkscape:connector-curvature="0" />
    <path
       style="color:#000000;clip-rule:nonzero;display:inline;overflow:visible;visibility:visible;opacity:0.98000004;isolation:auto;mix-blend-mode:normal;color-interpolation:sRGB;color-interpolation-filters:linearRGB;solid-color:#000000;solid-opacity:1;fill:#0000ff;fill-opacity:1;fill-rule:nonzero;stroke:none;stroke-width:0.30000001;stroke-linecap:butt;stroke-linejoin:miter;stroke-miterlimit:4;stroke-dasharray:none;stroke-dashoffset:0;stroke-opacity:1;color-rendering:auto;image-rendering:auto;shape-rendering:auto;text-rendering:auto;enable-background:accumulate"
       id="path5048"
       d="m 174.51675,965.00578 c 2.94445,-0.82585 5.74604,-2.07381 8.66042,-2.98576 1.24451,-0.27632 1.56609,-0.0159 1.80224,1.12866 0.30733,2.02921 0.87224,4.00922 1.19525,6.03918 0.27141,0.74797 -0.14567,1.48304 -0.0225,2.21432 0.1394,0.63874 0.22334,1.28561 0.28946,1.93524 0.003,0.0327 -0.46082,0.0721 -0.46359,0.0394 l 0,0 c -0.0645,-0.64351 -0.14825,-1.28392 -0.27646,-1.91838 -0.098,-0.73976 0.2325,-1.45529 -0.005,-2.20443 -0.34522,-2.01974 -0.91238,-3.99891 -1.17115,-6.03038 -0.1519,-0.80968 -0.19657,-0.98154 -1.11117,-0.78302 -2.89958,0.96678 -5.69889,2.23277 -8.67053,2.98493 -0.0297,0.0159 -0.25689,-0.40366 -0.22721,-0.41968 z"
       inkscape:connector-curvature="0" />
    <path
       style="color:#000000;clip-rule:nonzero;display:inline;overflow:visible;visibility:visible;opacity:0.98000004;isolation:auto;mix-blend-mode:normal;color-interpolation:sRGB;color-interpolation-filters:linearRGB;solid-color:#000000;solid-opacity:1;fill:#0000ff;fill-opacity:1;fill-rule:nonzero;stroke:none;stroke-width:0.30000001;stroke-linecap:butt;stroke-linejoin:miter;stroke-miterlimit:4;stroke-dasharray:none;stroke-dashoffset:0;stroke-opacity:1;color-rendering:auto;image-rendering:auto;shape-rendering:auto;text-rendering:auto;enable-background:accumulate"
       id="path5050"
       d="m 185.43548,966.09496 c 2.19052,-0.0997 4.1628,-0.91464 6.04432,-1.97355 0.77974,-0.45002 1.51364,-0.97617 2.43652,-0.89971 0.62177,-0.12424 1.22226,-0.20506 1.85522,-0.14981 1.13169,0.21797 1.14477,1.30555 1.23423,2.25263 0.0626,1.51874 -0.023,3.03992 -0.0602,4.55867 0.0353,0.93911 0.12466,1.87772 0.45732,2.75966 0.01,0.031 -0.43472,0.16918 -0.44446,0.13774 l 0,0 c -0.34592,-0.93266 -0.47108,-1.91369 -0.49763,-2.90797 0.0411,-1.50323 0.13624,-3.00856 0.0811,-4.51222 -0.0691,-0.76675 0.007,-1.70058 -0.9279,-1.85911 -0.62246,-0.12391 -1.22949,0.18494 -1.85592,0.14302 -0.58629,-0.18452 -1.47934,0.65542 -1.9699,0.8531 -2.00104,1.15717 -4.11424,2.03097 -6.46825,2.04757 -0.0319,-0.008 0.0838,-0.45824 0.11555,-0.45002 z"
       inkscape:connector-curvature="0" />
    <path
       style="color:#000000;clip-rule:nonzero;display:inline;overflow:visible;visibility:visible;opacity:0.98000004;isolation:auto;mix-blend-mode:normal;color-interpolation:sRGB;color-interpolation-filters:linearRGB;solid-color:#000000;solid-opacity:1;fill:#000080;fill-opacity:0.98039216;fill-rule:nonzero;stroke:none;stroke-width:0.30000001;stroke-linecap:butt;stroke-linejoin:miter;stroke-miterlimit:4;stroke-dasharray:none;stroke-dashoffset:0;stroke-opacity:1;color-rendering:auto;image-rendering:auto;shape-rendering:auto;text-rendering:auto;enable-background:accumulate"
       d="m 172.92545,1006.8109 -1.23159,-1.0711 2.85318,-2.8951 c 11.38332,-11.55037 27.41558,-20.5836 41.69757,-23.49409 2.36332,-0.48162 6.04678,-1.55035 8.18547,-2.37503 6.94739,-2.67893 8.93646,-2.55133 8.93646,0.57293 0,1.59813 -0.12191,1.74317 -2.52397,3.00328 -3.04844,1.59915 -6.08263,2.58412 -15.081,4.89527 -3.76786,0.96778 -7.91595,2.23293 -9.21798,2.81155 -3.75081,1.66662 -10.89444,6.06332 -19.69351,12.12069 -12.24047,8.4266 -11.84211,8.2426 -13.92463,6.4316 z"
       id="path5052"
       inkscape:connector-curvature="0" />
  </g>
</svg>
